<svg xmlns="http://www.w3.org/2000/svg" xmlns:xlink="http://www.w3.org/1999/xlink" width="2000" zoomAndPan="magnify" viewBox="0 0 1500 1499.999933" height="2000" preserveAspectRatio="xMidYMid meet" version="1.0"><defs><g/></defs><g fill="#ffffff" fill-opacity="1"><g transform="translate(615.61966, 771.374914)"><g><path d="M 8.625 -15.71875 C 8.625 -11.84375 9.425781 -8.851562 11.03125 -6.75 C 12.632812 -4.644531 14.976562 -3.59375 18.0625 -3.59375 C 20.5 -3.59375 22.453125 -4.082031 23.921875 -5.0625 C 25.390625 -6.039062 26.382812 -7.28125 26.90625 -8.78125 L 31.84375 -7.375 C 29.820312 -2.039062 25.226562 0.625 18.0625 0.625 C 13.0625 0.625 9.253906 -0.863281 6.640625 -3.84375 C 4.023438 -6.820312 2.71875 -11.25 2.71875 -17.125 C 2.71875 -22.707031 4.023438 -26.988281 6.640625 -29.96875 C 9.253906 -32.945312 12.988281 -34.4375 17.84375 -34.4375 C 27.78125 -34.4375 32.75 -28.445312 32.75 -16.46875 L 32.75 -15.71875 Z M 26.9375 -20.03125 C 26.625 -23.59375 25.71875 -26.191406 24.21875 -27.828125 C 22.71875 -29.460938 20.5625 -30.28125 17.75 -30.28125 C 15.019531 -30.28125 12.859375 -29.367188 11.265625 -27.546875 C 9.671875 -25.722656 8.8125 -23.21875 8.6875 -20.03125 Z M 26.9375 -20.03125 "/></g></g></g><path fill="#000000" d="M 649.996094 150 L 199.996094 150 C 172.515625 150 150 172.5 150 199.996094 L 150 750 C 150 777.496094 172.515625 799.996094 199.996094 799.996094 L 649.996094 799.996094 C 677.488281 799.996094 700.003906 777.496094 700.003906 750 L 700.003906 199.996094 C 700.003906 172.5 677.488281 150 649.996094 150 Z M 600 700.003906 L 250.003906 700.003906 L 250.003906 250.003906 L 600 250.003906 Z M 600 700.003906 " fill-opacity="1" fill-rule="nonzero"/><path fill="#000000" d="M 1300.003906 700.003906 L 850.003906 700.003906 C 822.511719 700.003906 799.996094 722.503906 799.996094 750 L 799.996094 1300.003906 C 799.996094 1327.484375 822.511719 1350 850.003906 1350 L 1300.003906 1350 C 1327.484375 1350 1350 1327.484375 1350 1300.003906 L 1350 750 C 1350 722.503906 1327.484375 700.003906 1300.003906 700.003906 Z M 1249.996094 1249.996094 L 900 1249.996094 L 900 799.996094 L 1249.996094 799.996094 Z M 1249.996094 1249.996094 " fill-opacity="1" fill-rule="nonzero"/><path fill="#000000" d="M 649.996094 900 L 199.996094 900 C 172.515625 900 150 922.515625 150 949.996094 L 150 1300.003906 C 150 1327.484375 172.515625 1350 199.996094 1350 L 649.996094 1350 C 677.488281 1350 700.003906 1327.484375 700.003906 1300.003906 L 700.003906 949.996094 C 700.003906 922.515625 677.488281 900 649.996094 900 Z M 600 1249.996094 L 250.003906 1249.996094 L 250.003906 1000.003906 L 600 1000.003906 Z M 600 1249.996094 " fill-opacity="1" fill-rule="nonzero"/><path fill="#000000" d="M 1300.003906 150 L 850.003906 150 C 822.511719 150 799.996094 172.5 799.996094 199.996094 L 799.996094 549.988281 C 799.996094 577.46875 822.511719 599.984375 850.003906 599.984375 L 1300.003906 599.984375 C 1327.484375 600 1350 577.484375 1350 550.003906 L 1350 199.996094 C 1350 172.5 1327.484375 150 1300.003906 150 Z M 1249.996094 499.996094 L 900 499.996094 L 900 250.003906 L 1249.996094 250.003906 Z M 1249.996094 499.996094 " fill-opacity="1" fill-rule="nonzero"/></svg>